<svg width="684" height="716" viewBox="0 0 684 716" fill="none" xmlns="http://www.w3.org/2000/svg">
<g clip-path="url(#clip0_232_59)">
<path d="M553.43 575.687C542.931 575.358 453.176 572.877 308.954 584.958C301.754 585.561 161.108 597.495 109.833 609.232C71.8874 617.915 112.946 619.604 66.4271 627.183C25.8902 633.786 -24.4365 635.627 -49.2954 640.33C-87.1688 647.495 -25.435 653.642 68.4958 652.28C165.502 650.874 350.483 640.68 493.289 620.644C653.643 598.148 650.431 578.731 553.43 575.687Z" fill="black" fill-opacity="0.02"/>
<g opacity="0.7">
<g opacity="0.7">
<path opacity="0.25" d="M298.509 411.423L297.664 411.906C289.501 397.464 280.082 383.48 271.002 369.956L267.548 364.811C260.254 353.919 253.903 344.066 248.324 335.371C245.184 330.493 242.214 325.856 239.291 321.412C230.38 307.791 224.1 298.251 220.985 293.518L218.932 290.378C194.491 252.993 175.05 193.195 164.593 161.074C163.457 157.596 162.443 154.481 161.574 151.824C146.359 106.034 125.057 60.1955 98.2499 15.5887L99.071 15.0815C125.903 59.7366 147.228 105.648 162.467 151.51C163.361 154.167 164.375 157.282 165.486 160.76C175.919 192.833 195.361 252.558 219.705 289.823L221.758 292.938C224.873 297.672 231.128 307.187 240.064 320.833C242.986 325.3 245.957 329.937 249.097 334.792C254.676 343.486 261.027 353.34 268.321 364.232L271.774 369.376C280.903 382.949 290.322 396.932 298.509 411.423Z" fill="#FCFDFE"/>
<path opacity="0.25" d="M167.177 166.17L166.211 166.242C164.617 140.739 166.235 114.897 167.78 89.9012C168.843 72.8023 169.954 55.0997 170.027 37.6627H170.993C170.92 55.1239 169.809 72.8265 168.747 89.9495C167.201 114.922 165.583 140.739 167.177 166.17Z" fill="#FCFDFE"/>
</g>
</g>
<path d="M174.736 295.039C197.027 345.104 224.777 327.088 261.22 305.617C265.471 356.479 271.485 405.844 277.74 455.933C253.154 469.94 235.258 479.504 213.74 452.721C189.396 422.436 176.354 404.153 133.559 404.878C90.7631 405.627 53.0634 382.466 57.9419 339.96C63.0861 295.233 15.1464 249.177 43.1857 211.187C92.0672 145.014 151.527 242.897 174.736 295.039Z" fill="url(#paint0_linear_232_59)"/>
<g opacity="0.5">
<g opacity="0.5">
<path opacity="0.5" d="M260.182 393.889C215.213 383.214 178.069 373.071 143.146 348.171C109.722 324.334 89.4831 295.136 75.4755 250.577C68.2061 227.489 60.4054 211.767 49.3201 190.417L50.1895 189.958C61.2989 211.356 69.1238 227.127 76.4174 250.288C90.3525 294.629 110.494 323.682 143.726 347.374C178.503 372.177 215.575 382.297 260.423 392.947L260.182 393.889Z" fill="#FCFDFE"/>
<path opacity="0.5" d="M223.328 470.351L222.458 469.916C229.293 456.319 237.335 444.727 247.044 434.463C252.019 429.198 257.405 425.189 263.974 420.793L264.505 421.59C257.984 425.962 252.647 429.946 247.744 435.115C238.108 445.331 230.138 456.851 223.328 470.351Z" fill="#FCFDFE"/>
<path opacity="0.5" d="M165.293 362.082C131.361 353.968 92.5261 358.798 55.9374 375.704L55.5269 374.834C92.3087 357.832 131.385 352.953 165.51 361.14L165.293 362.082Z" fill="#FCFDFE"/>
<path opacity="0.5" d="M96.3419 296.633L95.4242 296.947C93.7095 292.045 91.1495 242.583 90.4008 227.537C88.8551 196.407 87.6235 162.861 88.2031 160.639L89.145 160.881C88.6619 162.74 89.7004 193.243 91.391 227.489C92.9125 258.426 95.0136 292.842 96.3419 296.633Z" fill="#FCFDFE"/>
</g>
</g>
<path d="M508.594 140.958L490.119 144.411C472.754 147.648 460.171 162.814 460.171 180.469L467.851 173.586L11.3019 160.737V150.98C11.3019 131.297 26.8551 115.116 46.514 114.344L508.594 140.958Z" fill="#D8DEE8"/>
<path d="M45.8136 114.368C45.8136 114.368 58.8551 114.295 64.2166 116.082C81.726 121.854 94.2362 136.224 94.2362 153.879L94.4536 595.479C94.4777 621.368 116.89 641.559 142.659 638.854L594.982 591.421C571.58 590.479 553.104 571.231 553.104 547.805V169.673C553.104 149.99 537.551 133.809 517.892 133.036L45.8136 114.368Z" fill="url(#paint1_linear_232_59)"/>
<g opacity="0.5">
<path opacity="0.5" d="M153.334 568.84L306.644 557.054V551.572L153.334 563.092V568.84Z" fill="#D8DEE8"/>
<path opacity="0.5" d="M153.334 580.336L306.644 568.043V562.561L153.334 574.588V580.336Z" fill="#D8DEE8"/>
<g opacity="0.5">
<path opacity="0.5" d="M291.743 546.814L306.644 545.728V537.371L291.743 538.434V546.814Z" fill="url(#paint2_linear_232_59)"/>
<path opacity="0.5" d="M264.911 548.795L280.054 547.684V527.904L264.911 528.919V548.795Z" fill="url(#paint3_linear_232_59)"/>
<path opacity="0.5" d="M237.669 550.799L253.053 549.664V520.925L237.669 521.939V550.799Z" fill="url(#paint4_linear_232_59)"/>
<path opacity="0.5" d="M209.992 552.828L225.617 551.693V530.561L209.992 531.623V552.828Z" fill="url(#paint5_linear_232_59)"/>
<path opacity="0.5" d="M181.88 554.905L197.747 553.722V520.707L181.88 521.746V554.905Z" fill="url(#paint6_linear_232_59)"/>
<path opacity="0.5" d="M153.334 557.006L169.442 555.823V518.824L153.334 519.838V557.006Z" fill="url(#paint7_linear_232_59)"/>
</g>
</g>
<g opacity="0.7">
<path opacity="0.7" d="M153.334 484.07L306.644 475.907V470.401L153.334 478.347V484.07Z" fill="#D8DEE8"/>
<path opacity="0.7" d="M153.334 495.566L306.644 486.896V481.39L153.334 489.818V495.566Z" fill="#D8DEE8"/>
<g opacity="0.7">
<path opacity="0.7" d="M291.743 464.605L306.644 463.856V455.5L291.743 456.224V464.605Z" fill="url(#paint8_linear_232_59)"/>
<path opacity="0.7" d="M264.911 465.933L280.054 465.184V445.405L264.911 446.081V465.933Z" fill="url(#paint9_linear_232_59)"/>
<path opacity="0.7" d="M237.669 467.31L253.053 466.537V437.797L237.669 438.449V467.31Z" fill="url(#paint10_linear_232_59)"/>
<path opacity="0.7" d="M209.992 468.686L225.617 467.889V446.781L209.992 447.457V468.686Z" fill="url(#paint11_linear_232_59)"/>
<path opacity="0.7" d="M181.88 470.087L197.747 469.29V436.276L181.88 436.904V470.087Z" fill="url(#paint12_linear_232_59)"/>
<path opacity="0.7" d="M153.334 471.512L169.442 470.691V433.716L153.334 434.344V471.512Z" fill="url(#paint13_linear_232_59)"/>
</g>
</g>
<path d="M153.334 202.615L306.644 206.407V200.9L153.334 196.867V202.615Z" fill="#D8DEE8"/>
<path d="M153.334 214.087L306.644 217.395V211.889L153.334 208.339V214.087Z" fill="#D8DEE8"/>
<path opacity="0.7" d="M169.442 189.767L153.334 189.308V180.565L169.442 181.073V189.767Z" fill="url(#paint14_angular_232_59)"/>
<path opacity="0.7" d="M197.747 190.564L181.88 190.105V169.77L197.747 170.301V190.564Z" fill="url(#paint15_angular_232_59)"/>
<path opacity="0.7" d="M225.617 191.361L209.992 190.902V161.824L225.617 162.404V191.361Z" fill="url(#paint16_angular_232_59)"/>
<path opacity="0.7" d="M253.053 192.134L237.669 191.699V170.639L253.053 171.171V192.134Z" fill="url(#paint17_angular_232_59)"/>
<path opacity="0.7" d="M280.054 192.907L264.911 192.472V160.085L280.054 160.641V192.907Z" fill="url(#paint18_angular_232_59)"/>
<path opacity="0.7" d="M306.644 193.655L291.743 193.22V157.501L306.644 158.081V193.655Z" fill="url(#paint19_angular_232_59)"/>
<g opacity="0.3">
<path opacity="0.3" d="M487.558 428.837L496.253 428.475V352.762L487.558 352.931V428.837Z" fill="url(#paint20_linear_232_59)"/>
<path opacity="0.3" d="M471.981 429.489L480.772 429.127V391.089L471.981 391.355V429.489Z" fill="url(#paint21_linear_232_59)"/>
<path opacity="0.3" d="M456.235 430.141L465.122 429.779V346.096L456.235 346.241V430.141Z" fill="url(#paint22_linear_232_59)"/>
<path opacity="0.3" d="M440.343 430.818L449.303 430.431V358.824L440.343 359.017V430.818Z" fill="url(#paint23_linear_232_59)"/>
<path opacity="0.3" d="M424.307 431.494L433.364 431.107V411.811L424.307 412.149V431.494Z" fill="url(#paint24_linear_232_59)"/>
<path opacity="0.3" d="M408.126 432.17L417.255 431.783V386.211L408.126 386.476V432.17Z" fill="url(#paint25_linear_232_59)"/>
<path opacity="0.3" d="M391.776 432.846L400.977 432.46V366.479L391.776 366.673V432.846Z" fill="url(#paint26_linear_232_59)"/>
<path opacity="0.3" d="M375.257 433.547L384.555 433.16V384.786L375.257 385.051V433.547Z" fill="url(#paint27_linear_232_59)"/>
<path opacity="0.3" d="M358.568 434.247L367.987 433.836V358.461L358.568 358.654V434.247Z" fill="url(#paint28_linear_232_59)"/>
<path opacity="0.3" d="M341.735 434.947L351.227 434.537V350.347L341.735 350.516V434.947Z" fill="url(#paint29_linear_232_59)"/>
</g>
<path opacity="0.3" d="M341.735 447.892L496.253 440.816V432.75L341.735 439.415V447.892Z" fill="#D8DEE8"/>
<path opacity="0.3" d="M341.735 459.581L449.303 454.292V450.67L341.735 455.838V459.581Z" fill="#D8DEE8"/>
<path opacity="0.5" d="M341.735 327.113L496.253 325.519V310.063L341.735 310.908V327.113Z" fill="#D8DEE8"/>
<path d="M360.718 223.723C360.718 256.593 387.888 283.304 420.805 283.376C453.095 283.448 478.792 257.8 478.792 226.09C478.792 194.356 453.071 167.693 420.805 166.485C387.863 165.23 360.718 190.854 360.718 223.723Z" fill="#D8DEE8"/>
<path opacity="0.35" d="M364.22 222.008C364.968 198.389 380.666 178.971 402.137 172.258C408.005 170.422 414.285 169.528 420.805 169.77C451.26 170.881 475.555 196.046 475.555 226.018C475.555 255.965 451.26 280.164 420.805 280.067C389.771 279.947 364.196 254.757 364.196 223.796C364.171 223.192 364.196 222.612 364.22 222.008Z" fill="white"/>
<path opacity="0.7" d="M364.22 222.008C364.968 198.389 380.666 178.971 402.137 172.258C408.005 170.422 414.285 169.528 420.805 169.77C451.26 170.881 475.555 196.046 475.555 226.018C475.555 255.965 451.26 280.164 420.805 280.067C389.771 279.947 364.196 254.757 364.196 223.796C364.171 223.192 364.196 222.612 364.22 222.008Z" fill="url(#paint30_linear_232_59)"/>
<path d="M364.22 222.009C364.968 198.389 380.667 178.972 402.137 172.258L420.806 224.907L364.22 222.009Z" fill="white"/>
<path d="M495.48 552.949L341.735 565.242V468.493L343.281 468.421V563.624L495.48 551.5V552.949Z" fill="#D8DEE8"/>
<path d="M363.64 536.623L362.553 535.633L394.698 501.507L425.684 510.129L455.655 482.67L485.288 496.049L484.636 497.353L455.873 484.384L425.998 511.771L395.109 503.174L363.64 536.623Z" fill="#D8DEE8"/>
<path opacity="0.7" d="M368.374 535.753C368.374 538.579 366.007 541.067 363.109 541.284C360.186 541.501 357.82 539.376 357.82 536.526C357.82 533.676 360.186 531.213 363.109 530.996C366.007 530.778 368.374 532.903 368.374 535.753Z" fill="url(#paint31_linear_232_59)"/>
<path opacity="0.7" d="M400.084 502.014C400.084 504.816 397.765 507.255 394.916 507.424C392.042 507.617 389.723 505.468 389.723 502.666C389.723 499.865 392.042 497.426 394.916 497.257C397.765 497.063 400.084 499.213 400.084 502.014Z" fill="url(#paint32_linear_232_59)"/>
<path opacity="0.7" d="M430.925 510.636C430.925 513.414 428.654 515.829 425.853 516.022C423.051 516.215 420.757 514.114 420.757 511.313C420.757 508.511 423.051 506.12 425.853 505.927C428.654 505.734 430.925 507.835 430.925 510.636Z" fill="url(#paint33_linear_232_59)"/>
<path opacity="0.7" d="M460.751 483.225C460.751 485.978 458.529 488.345 455.752 488.514C452.999 488.683 450.753 486.582 450.753 483.805C450.753 481.027 452.999 478.661 455.752 478.516C458.505 478.371 460.751 480.472 460.751 483.225Z" fill="url(#paint34_linear_232_59)"/>
<path opacity="0.7" d="M489.853 496.387C489.853 499.116 487.655 501.483 484.95 501.652C482.245 501.821 480.023 499.744 480.023 497.015C480.023 494.262 482.221 491.919 484.95 491.75C487.655 491.581 489.853 493.658 489.853 496.387Z" fill="url(#paint35_linear_232_59)"/>
<path d="M235.447 366.407L227.525 366.576C222.309 366.697 218.058 362.808 218.058 357.906V349.598C218.058 344.961 215.232 340.855 210.861 339.165C189.246 330.808 176.349 310.377 179.006 288.448C181.735 265.77 201.418 247.729 225.545 245.531C240.567 244.155 254.888 248.623 265.877 258.066C276.648 267.291 282.807 280.405 282.807 294.075C282.807 313.299 270.731 330.76 251.894 338.633C247.619 340.42 244.842 344.55 244.842 349.163V357.423C244.842 362.253 240.639 366.286 235.447 366.407ZM231.559 248.091C229.675 248.067 227.767 248.14 225.859 248.309C203.157 250.386 184.633 267.388 182.049 288.762C179.562 309.435 191.685 328.683 212.045 336.556C217.527 338.682 221.053 343.777 221.053 349.55V357.857C221.053 361.19 223.951 363.847 227.525 363.774L235.447 363.605C238.973 363.533 241.847 360.78 241.847 357.471V349.211C241.847 343.488 245.325 338.319 250.71 336.073C268.485 328.659 279.885 312.188 279.885 294.051C279.885 281.154 274.064 268.813 263.897 260.094C254.937 252.414 243.634 248.236 231.559 248.091Z" fill="#D8DEE8"/>
<path d="M244.359 386.452L224.241 386.984C223.42 387.008 222.743 386.404 222.743 385.607C222.743 384.81 223.42 384.182 224.241 384.158L241.388 383.699V382.516L218.517 383.095V379.014L241.388 374.956V373.99L221.536 374.449V375.439C221.536 376.212 220.86 376.864 220.038 376.888C219.217 376.913 218.541 376.285 218.541 375.512V371.72L244.383 371.141V377.275L228.878 380.052L244.383 379.666V386.452H244.359Z" fill="#D8DEE8"/>
<path d="M231.486 399.59C225.448 399.783 220.521 395.315 220.521 389.64C220.521 388.867 221.198 388.215 222.019 388.191C222.84 388.167 223.516 388.771 223.516 389.543C223.516 393.649 227.091 396.909 231.486 396.765C235.857 396.644 239.408 393.19 239.408 389.085C239.408 388.312 240.084 387.66 240.905 387.635C241.726 387.611 242.402 388.215 242.402 388.988C242.402 394.688 237.524 399.421 231.486 399.59Z" fill="#D8DEE8"/>
<path d="M231.486 360.369C230.762 360.369 230.134 359.91 230.013 359.234L220.546 308.324C220.401 307.551 220.956 306.826 221.777 306.682C222.599 306.537 223.371 307.044 223.516 307.817L231.583 351.168L240.519 307.696C240.663 306.947 241.46 306.44 242.257 306.585C243.054 306.73 243.586 307.454 243.441 308.227L232.983 359.186C232.814 359.862 232.211 360.345 231.486 360.369Z" fill="#D8DEE8"/>
<path d="M470.798 254.105C470.798 254.105 512.313 291.563 488.162 361.77C485.916 368.315 477.391 369.909 472.899 364.644L444.352 331.098C439.764 325.712 437.687 318.66 438.58 311.657L443.217 275.696L470.798 254.105Z" fill="url(#paint36_linear_232_59)"/>
<path d="M381.053 197.809C381.053 197.809 329.249 176.725 276.576 229.036C271.673 233.915 273.943 242.271 280.633 244.01L323.26 255.119C330.094 256.906 337.364 255.723 343.281 251.859L373.638 232.031L381.053 197.809Z" fill="url(#paint37_linear_232_59)"/>
<path d="M473.937 249.106C473.937 249.106 515.453 286.564 491.302 356.771C489.056 363.315 480.531 364.909 476.039 359.644L447.492 326.099C442.903 320.713 440.826 313.661 441.72 306.657L446.357 270.697L473.937 249.106Z" fill="url(#paint38_linear_232_59)"/>
<path d="M384.217 192.81C384.217 192.81 332.413 171.726 279.74 224.037C274.837 228.915 277.107 237.272 283.797 239.01L326.423 250.12C333.258 251.907 340.528 250.724 346.445 246.86L376.802 227.032L384.217 192.81Z" fill="url(#paint39_linear_232_59)"/>
<path d="M411.29 84.034C457.37 25.9751 545.352 35.4181 545.4 35.5147C545.521 35.5147 592.301 110.624 560.084 177.377C530.861 237.924 456.549 287.771 442.227 296.973C440.682 297.963 438.17 299.364 437.035 297.939C414.912 270.045 387.598 253.888 356.202 247.27C354.463 246.908 354.68 244.058 354.897 242.295C356.926 225.607 369.412 136.78 411.29 84.034Z" fill="url(#paint40_linear_232_59)"/>
<g opacity="0.3">
<path opacity="0.3" d="M453.409 159.53C479.226 127.288 507.749 136.2 532.986 107.798C542.212 97.4377 551.752 81.2082 555.181 54.6422C566.894 81.2324 582.327 131.297 560.084 177.401C530.861 237.948 456.549 287.795 442.227 296.997C440.682 297.987 438.17 299.388 437.035 297.963C425.853 283.859 413.343 272.774 399.673 264.393C409.865 256.713 416.917 248.598 421.94 241.039C442.227 210.512 429.886 188.921 453.409 159.53Z" fill="#9099CF"/>
</g>
<path d="M515.936 82.4883C494.224 68.8672 468.045 57.2506 445.56 55.1736C485.168 32.9789 531.248 34.4521 542.719 35.2732C544.41 35.394 545.931 36.36 546.777 37.8332C552.5 47.7834 573.898 88.6468 571.145 133.954C561.267 116.589 537.648 96.1094 515.936 82.4883Z" fill="url(#paint41_linear_232_59)"/>
<path opacity="0.3" d="M555.181 54.6182C555.229 54.7389 555.302 54.8597 555.35 54.9804C555.447 55.1978 555.543 55.4151 555.64 55.6325C555.737 55.8499 555.833 56.0672 555.93 56.2846C556.026 56.5019 556.099 56.6951 556.195 56.9125C556.292 57.154 556.389 57.3714 556.485 57.6129C556.582 57.8061 556.654 58.0234 556.751 58.2166C556.847 58.4582 556.968 58.7238 557.065 58.9653C557.137 59.1585 557.234 59.3517 557.306 59.5449C557.403 59.8106 557.524 60.0763 557.62 60.3419C557.693 60.5351 557.765 60.7283 557.862 60.9216C557.983 61.2114 558.079 61.477 558.2 61.7668C558.272 61.96 558.345 62.1291 558.417 62.3223C558.538 62.6121 558.659 62.9019 558.755 63.2159C558.828 63.385 558.9 63.5782 558.973 63.7472C559.094 64.0612 559.214 64.351 559.335 64.665C559.407 64.834 559.48 65.0272 559.528 65.1963C559.649 65.5102 559.77 65.8484 559.891 66.1623C559.963 66.3314 560.011 66.5004 560.084 66.6695C560.204 67.0076 560.325 67.3457 560.446 67.6838C560.494 67.8529 560.567 68.0219 560.615 68.191C560.736 68.5291 560.857 68.8914 561.001 69.2536C561.05 69.4227 561.122 69.5676 561.171 69.7366C561.291 70.0989 561.436 70.4612 561.557 70.8234C561.605 70.9925 561.654 71.1374 561.726 71.3065C561.847 71.6929 561.992 72.0551 562.112 72.4416C562.161 72.5865 562.209 72.7555 562.257 72.9004C562.378 73.2868 562.523 73.6733 562.644 74.0597C562.692 74.2046 562.74 74.3736 562.789 74.5185C562.909 74.9049 563.054 75.3155 563.175 75.7261C563.223 75.871 563.272 76.0159 563.32 76.1608C563.441 76.5714 563.586 76.9819 563.706 77.3925C563.755 77.5374 563.803 77.6823 563.827 77.8272C563.948 78.2378 564.093 78.6725 564.214 79.1072C564.262 79.2521 564.286 79.397 564.334 79.5178C564.455 79.9525 564.6 80.3872 564.721 80.8219C564.769 80.9427 564.793 81.0876 564.841 81.2083C564.962 81.6672 565.107 82.1019 565.228 82.5608C565.252 82.6816 565.3 82.8265 565.324 82.9472C565.445 83.4061 565.566 83.865 565.711 84.3238C565.735 84.4446 565.783 84.5653 565.807 84.7102C565.928 85.1691 566.049 85.6521 566.17 86.111C566.194 86.2317 566.242 86.3525 566.266 86.4732C566.387 86.9563 566.508 87.4393 566.629 87.9223C566.653 88.0431 566.677 88.1638 566.725 88.2846C566.846 88.7676 566.967 89.2748 567.088 89.7578C567.112 89.8785 567.136 89.9751 567.16 90.0959C567.281 90.6031 567.401 91.1102 567.498 91.6174C567.522 91.714 567.546 91.8348 567.571 91.9314C567.691 92.4385 567.788 92.9699 567.909 93.477C567.933 93.5736 567.957 93.6944 567.981 93.791C568.102 94.3223 568.198 94.8295 568.295 95.3608C568.319 95.4574 568.343 95.554 568.343 95.6506C568.44 96.1819 568.561 96.7133 568.657 97.2687C568.681 97.3653 568.681 97.4619 568.706 97.5585C568.802 98.114 568.899 98.6453 568.995 99.2008C569.02 99.2974 569.02 99.3699 569.044 99.4665C569.14 100.022 569.237 100.577 569.334 101.133C569.358 101.205 569.358 101.302 569.382 101.374C569.478 101.93 569.575 102.509 569.647 103.089C569.647 103.162 569.672 103.234 569.672 103.306C569.768 103.886 569.841 104.466 569.937 105.045C569.937 105.118 569.961 105.19 569.961 105.263C570.034 105.866 570.131 106.446 570.203 107.05C570.203 107.122 570.227 107.171 570.227 107.243C570.3 107.847 570.372 108.451 570.444 109.054C570.444 109.103 570.445 109.151 570.469 109.199C570.541 109.827 570.614 110.431 570.662 111.059C570.662 111.107 570.662 111.131 570.686 111.18C570.758 111.808 570.807 112.46 570.855 113.088C570.855 113.112 570.855 113.16 570.855 113.184C570.903 113.836 570.976 114.488 571.024 115.14C571.024 115.165 571.024 115.165 571.024 115.189C571.483 121.299 571.58 127.578 571.193 133.93C564.866 122.845 552.935 110.455 539.483 99.4182C546.342 89.2265 552.549 74.9533 555.181 54.6182Z" fill="url(#paint42_linear_232_59)"/>
<path d="M422.617 118.763C406.822 143.953 416.675 178.585 444.642 196.119C472.609 213.652 508.087 207.47 523.881 182.28C539.676 157.091 529.823 122.458 501.856 104.925C473.889 87.391 438.411 93.5737 422.617 118.763Z" fill="url(#paint43_linear_232_59)"/>
<path d="M453.409 159.53C474.469 133.205 497.34 134.316 518.762 120.164C533.083 138.567 535.885 163.153 523.882 182.304C508.087 207.494 472.609 213.676 444.642 196.143C442.348 194.718 440.199 193.148 438.146 191.506C440.488 181.362 444.184 171.05 453.409 159.53Z" fill="url(#paint44_linear_232_59)"/>
<path d="M426.843 121.42C412.353 144.508 421.409 176.242 447.033 192.327C472.657 208.411 505.189 202.736 519.655 179.648C534.146 156.559 525.089 124.825 499.465 108.74C473.841 92.6559 441.31 98.3314 426.843 121.42Z" fill="url(#paint45_linear_232_59)"/>
<path d="M432.832 125.163C420.226 145.281 428.099 172.934 450.414 186.941C472.754 200.949 501.059 195.998 513.69 175.904C526.297 155.786 518.423 128.134 496.108 114.126C473.768 100.118 445.439 105.069 432.832 125.163Z" fill="url(#paint46_linear_232_59)"/>
<path d="M354.294 246.232C349.995 253.115 365.331 270.503 388.588 285.091C411.845 299.678 434.185 305.933 438.508 299.074C442.807 292.191 427.471 274.802 404.214 260.215C380.956 245.628 358.617 239.349 354.294 246.232Z" fill="#35386D"/>
<path d="M391.365 260.988L409.43 272.315C419.042 278.352 424.042 289.607 422.061 300.789L420.177 311.391C419.477 315.303 415.057 317.26 411.7 315.159L351.758 277.555C348.401 275.454 348.232 270.6 351.468 268.281L360.211 261.978C369.436 255.361 381.753 254.95 391.365 260.988Z" fill="url(#paint47_linear_232_59)"/>
<path d="M348.497 272.17C344.44 278.642 356.685 293.664 375.885 305.715C395.084 317.767 413.946 322.259 418.004 315.786C422.061 309.314 409.817 294.292 390.617 282.241C371.441 270.189 352.579 265.673 348.497 272.17Z" fill="url(#paint48_linear_232_59)"/>
<path d="M356.854 277.386C353.762 282.313 363.084 293.737 377.672 302.866C392.259 312.019 406.58 315.448 409.672 310.521C412.763 305.595 403.441 294.171 388.854 285.018C374.266 275.889 359.945 272.46 356.854 277.386Z" fill="url(#paint49_linear_232_59)"/>
<g opacity="0.3">
<path opacity="0.3" d="M453.409 159.53C471.329 137.142 490.553 134.582 509.077 125.622C520.959 140.378 523.423 160.375 513.69 175.88C501.083 195.998 472.754 200.925 450.414 186.917C447.154 184.864 444.208 182.522 441.575 179.962C444.039 173.465 447.637 166.727 453.409 159.53Z" fill="url(#paint50_linear_232_59)"/>
</g>
<path opacity="0.32" d="M65.3759 656.17L470.17 612.577C470.218 495.276 443.555 440.333 417.231 412.052C408.851 403.068 382.792 377.685 386.632 348.245C388.829 331.34 400.18 318.685 409.672 310.522C417.255 296.9 365.379 266.881 356.854 277.386C335.166 279.874 303.504 287.071 280.319 311.318C250.758 342.208 263.172 371.261 238.9 404.783C204.534 452.287 150.991 433.498 107.954 468.589C79.7457 491.557 52.6725 540.414 65.3759 656.17Z" fill="url(#paint51_linear_232_59)"/>
<path d="M109.5 698.507C109.5 698.507 107.23 703.675 107.326 704.568V704.593C107.495 706.356 108.896 707.708 110.538 707.611C115.32 707.346 124.497 706.645 129.279 705.172C135.945 703.095 113.074 697.758 113.074 697.758L109.5 698.507Z" fill="url(#paint52_linear_232_59)"/>
<path d="M109.645 690.851L110.007 699.617C110.007 699.617 111.335 701.743 114.62 699.038L116.383 689.716L109.645 690.851Z" fill="#F2C9AB"/>
<path d="M126.26 527.88C120.947 530.827 117.735 534.836 116.479 536.55C106.312 550.437 112.543 565.531 112.036 589.441C111.335 622.648 98.6076 626.923 100.081 658.392C100.757 673.172 104.162 685.079 106.891 692.759C110.997 692.203 115.103 691.672 119.208 691.116C121.092 670.733 126.14 639.192 141.645 604.753C157.874 568.768 176.229 550.268 168.911 536.309C162.849 524.813 140.993 519.741 126.26 527.88Z" fill="#26264F"/>
<path opacity="0.3" d="M168.911 536.333C162.849 524.789 140.993 519.741 126.261 527.88C125.705 528.17 125.198 528.508 124.715 528.822C135.438 547.032 135.607 559.494 133.216 567.946C130.777 576.592 125.657 580.867 124.449 593.353C123.121 607.24 128.7 609.583 126.574 620.885C123.87 635.086 114.354 634.796 111.746 648.707C109.258 661.942 116.721 668.294 112.06 676.843C110.273 680.128 107.374 682.422 104.187 684.064C105.08 687.373 106.046 690.295 106.916 692.783C111.021 692.227 115.127 691.696 119.233 691.14C121.116 670.757 126.164 639.216 141.669 604.777C157.874 568.792 176.229 550.292 168.911 536.333Z" fill="#0F0F28"/>
<path d="M178.789 701.936C178.789 701.936 176.519 707.104 176.615 707.998V708.022C176.784 709.785 178.185 711.138 179.827 711.041C184.609 710.775 193.786 710.075 198.568 708.602C205.234 706.525 182.363 701.187 182.363 701.187L178.789 701.936Z" fill="url(#paint53_linear_232_59)"/>
<path d="M176.978 694.328L179.199 703.288C179.199 703.288 180.528 705.414 183.812 702.709L183.716 693.193L176.978 694.328Z" fill="#F2C9AB"/>
<path d="M145.919 533.097C136.066 543.264 148.528 579.225 154.928 597.725C155.531 599.439 157.101 603.883 158.067 610.09C159.396 618.76 158.623 625.088 158.285 629.966C158.285 629.966 157.439 642.525 160.458 660.324C161.931 668.946 165.433 682.011 174.949 697.009C178.668 696.357 182.411 695.705 186.131 695.053C186.276 678.896 186.686 652.547 188.256 619.919C190.792 566.594 195.308 517.906 189.777 516.819C187.966 516.457 187.507 521.746 181.904 526.576C169.056 537.661 153.454 525.32 145.919 533.097Z" fill="#26264F"/>
<path d="M155.217 406.642C142.538 407.391 100.129 411.279 75.3261 439.294C69.4575 445.912 55.0635 462.189 61.9465 476.463C68.588 490.205 93.222 498.488 122.469 493.9C124.425 491.412 126.405 488.925 128.362 486.437C112.205 484.795 101.023 477.211 100.322 469.314C99.7186 462.407 107.254 456.852 111.021 454.051C123.894 444.535 140.147 444.728 145.702 445.018C148.89 432.218 152.054 419.418 155.217 406.642Z" fill="url(#paint54_linear_232_59)"/>
<path d="M265.104 329.673C269.645 336.75 269.307 345.057 264.38 348.245C259.429 351.433 251.725 348.27 247.184 341.217C242.644 334.141 242.982 325.833 247.909 322.645C252.86 319.433 260.564 322.597 265.104 329.673Z" fill="url(#paint55_linear_232_59)"/>
<path d="M197.071 378.917L246.387 328.393C247.039 327.741 247.933 327.427 248.851 327.548C252.787 328.103 263.148 330.833 263.583 343.85C263.631 344.937 263.051 345.951 262.11 346.482L200.138 381.525L197.071 378.917Z" fill="url(#paint56_linear_232_59)"/>
<path d="M200.404 378.941C201.297 380.318 201.225 381.936 200.259 382.564C199.293 383.192 197.796 382.564 196.902 381.187C196.008 379.811 196.081 378.193 197.047 377.565C198.013 376.961 199.534 377.565 200.404 378.941Z" fill="url(#paint57_linear_232_59)"/>
<path d="M242.91 368.943L234.094 362.301C234.094 362.301 238.49 360.997 236.92 354.5C235.35 348.004 239.625 349.26 239.746 354.5C239.891 359.741 241.243 363.364 241.243 363.364L246.629 367.228L242.91 368.943Z" fill="url(#paint58_linear_232_59)"/>
<path d="M191.999 394.205C193.956 390.727 192.941 386.814 192.724 385.969C191.782 382.443 191.444 381.912 190.768 381.163L189.802 380.197C189.802 380.197 189.753 380.149 189.681 380.125C189.029 379.69 186.59 379.038 186.058 379.014C184.392 378.965 181.131 385.027 179.417 394.301C179.272 394.639 179.127 394.978 178.982 395.316C178.716 395.944 178.523 396.402 178.499 396.451C178.185 397.175 176.446 399.904 174.514 401.522C170.094 405.29 159.903 407.536 159.999 409.178C160.072 410.724 169.008 411.762 177.847 411.569C184.078 411.424 194.704 410.579 194.897 408.357C195.091 406.135 184.464 405.121 185.696 397.731C185.841 397.03 190.574 396.765 191.999 394.205Z" fill="url(#paint59_linear_232_59)"/>
<path d="M193.762 378.41C193.062 381.236 191.009 383.94 190.212 384.279C190.116 384.327 189.512 384.593 188.908 385.148C188.836 385.221 188.739 385.317 188.667 385.438C187.604 387.08 189.947 389.857 189.198 390.534C188.667 391.017 186.928 389.785 186.565 390.22C186.227 390.63 187.604 392.007 187.218 392.514C186.928 392.901 186.034 392.273 185.261 392.78C184.875 393.021 184.899 393.311 184.344 394.229C184.03 394.736 183.619 395.291 183.329 395.581C181.953 397.006 179.03 396.958 178.644 396.161C178.547 395.944 178.716 395.823 178.692 395.147C178.692 395.147 178.692 394.543 178.451 393.77C178.113 392.683 176.881 391.669 175.722 390.316C173.572 387.829 173.258 386.066 173.186 385.486C173.162 385.269 173.138 385.124 173.138 385.003C172.969 382.757 173.717 379.69 175.094 378.024C177.436 375.246 180.624 377.589 184.271 375.174C188.498 372.372 187.701 366.938 189.633 366.842C191.83 366.721 195.042 373.169 193.762 378.41Z" fill="#26264F"/>
<path d="M188.353 389.616C187.894 388.505 186.445 389.085 186.155 390.341C185.841 391.572 186.734 393.142 187.966 393.19C189.15 393.215 188.956 391.138 188.353 389.616Z" fill="url(#paint60_linear_232_59)"/>
<path d="M140.268 410.144C145.75 406.184 154.445 405.435 171.882 404.203C184.971 403.285 197.119 403.793 204.413 404.107C220.232 404.807 226.052 406.039 236.075 403.503C243.151 401.716 251.242 399.687 253.608 393.601C256.217 386.911 251.193 377.13 241.002 369.571C243.054 367.904 245.107 366.238 247.16 364.571C250.903 365.393 262.81 368.508 271.19 379.642C278.46 389.302 282.082 403.382 277.421 415.409C273.219 426.18 263.848 431.494 249.744 439.488C233.925 448.448 230.568 445.743 223.927 452.505C218.903 457.625 216.416 468.372 211.634 489.649C208.929 501.628 207.07 511.699 202.602 527.083C198.327 541.767 196.805 543.747 195.163 545.245C187.266 552.466 178.813 547.153 155.435 550.485C140.51 552.611 140.63 555.243 127.396 556.137C115.175 556.958 102.327 557.803 94.7193 549.278C88.2952 542.057 89.3095 531.793 89.4786 530.319C90.8069 519.331 98.825 514.525 106.626 504.719C113.63 495.904 116.842 485.519 123.266 464.798C134.23 429.272 129.159 418.235 140.268 410.144Z" fill="url(#paint61_linear_232_59)"/>
<path opacity="0.3" d="M278.895 397.417C277.615 402.223 275.513 407.005 272.156 411.376C261.288 425.528 241.654 429.755 231.414 431.952C212.818 435.937 201.515 432.822 197.941 439.608C194.584 446.008 203.375 451.128 202.384 462.6C201.177 476.439 187.725 476.897 179.393 494.455C170.843 512.496 178.33 526.141 169.708 531.165C163.888 534.57 159.758 528.725 146.716 527.542C122.952 525.368 110.804 542.371 99.5255 536.405C96.6756 534.908 93.3187 531.623 91.3141 523.654C90.3964 525.658 89.7202 527.832 89.4304 530.343C89.2613 531.817 88.247 542.081 94.6711 549.302C102.279 557.827 115.127 556.982 127.347 556.161C140.582 555.291 140.461 552.659 155.387 550.509C178.765 547.152 187.218 552.49 195.115 545.269C196.757 543.771 198.303 541.791 202.553 527.107C207.021 511.723 208.905 501.652 211.586 489.673C216.368 468.396 218.879 457.649 223.879 452.529C230.52 445.743 233.877 448.472 249.696 439.512C263.8 431.518 273.195 426.205 277.373 415.433C279.643 409.637 279.957 403.406 278.895 397.417Z" fill="url(#paint62_linear_232_59)"/>
</g>
<defs>
<linearGradient id="paint0_linear_232_59" x1="95.3033" y1="228.423" x2="313.744" y2="588.032" gradientUnits="userSpaceOnUse">
<stop stop-color="#F5653D"/>
<stop offset="1" stop-color="#E86B10"/>
</linearGradient>
<linearGradient id="paint1_linear_232_59" x1="342.807" y1="551.048" x2="306.319" y2="228.592" gradientUnits="userSpaceOnUse">
<stop offset="0.494" stop-color="#EBEFF2"/>
<stop offset="1" stop-color="white"/>
</linearGradient>
<linearGradient id="paint2_linear_232_59" x1="313.178" y1="523.764" x2="152.468" y2="734.13" gradientUnits="userSpaceOnUse">
<stop stop-color="#FFC444"/>
<stop offset="0.9964" stop-color="#F36F56"/>
</linearGradient>
<linearGradient id="paint3_linear_232_59" x1="293.218" y1="511.154" x2="135.472" y2="717.642" gradientUnits="userSpaceOnUse">
<stop stop-color="#FFC444"/>
<stop offset="0.9964" stop-color="#F36F56"/>
</linearGradient>
<linearGradient id="paint4_linear_232_59" x1="273.725" y1="498.664" x2="116.257" y2="704.787" gradientUnits="userSpaceOnUse">
<stop stop-color="#FFC444"/>
<stop offset="0.9964" stop-color="#F36F56"/>
</linearGradient>
<linearGradient id="paint5_linear_232_59" x1="258.921" y1="487.83" x2="98.0262" y2="698.44" gradientUnits="userSpaceOnUse">
<stop stop-color="#FFC444"/>
<stop offset="0.9964" stop-color="#F36F56"/>
</linearGradient>
<linearGradient id="paint6_linear_232_59" x1="237.804" y1="474.921" x2="77.7516" y2="684.428" gradientUnits="userSpaceOnUse">
<stop stop-color="#FFC444"/>
<stop offset="0.9964" stop-color="#F36F56"/>
</linearGradient>
<linearGradient id="paint7_linear_232_59" x1="218.875" y1="462.576" x2="57.7677" y2="673.464" gradientUnits="userSpaceOnUse">
<stop stop-color="#FFC444"/>
<stop offset="0.9964" stop-color="#F36F56"/>
</linearGradient>
<linearGradient id="paint8_linear_232_59" x1="367.307" y1="378.405" x2="115.906" y2="679.686" gradientUnits="userSpaceOnUse">
<stop stop-color="#FF9085"/>
<stop offset="1" stop-color="#FB6FBB"/>
</linearGradient>
<linearGradient id="paint9_linear_232_59" x1="347.815" y1="365.346" x2="99.2735" y2="663.201" gradientUnits="userSpaceOnUse">
<stop stop-color="#FF9085"/>
<stop offset="1" stop-color="#FB6FBB"/>
</linearGradient>
<linearGradient id="paint10_linear_232_59" x1="329.434" y1="351.723" x2="80.6784" y2="649.833" gradientUnits="userSpaceOnUse">
<stop stop-color="#FF9085"/>
<stop offset="1" stop-color="#FB6FBB"/>
</linearGradient>
<linearGradient id="paint11_linear_232_59" x1="316.722" y1="339.138" x2="63.0745" y2="643.113" gradientUnits="userSpaceOnUse">
<stop stop-color="#FF9085"/>
<stop offset="1" stop-color="#FB6FBB"/>
</linearGradient>
<linearGradient id="paint12_linear_232_59" x1="296.624" y1="325.103" x2="43.5522" y2="628.388" gradientUnits="userSpaceOnUse">
<stop stop-color="#FF9085"/>
<stop offset="1" stop-color="#FB6FBB"/>
</linearGradient>
<linearGradient id="paint13_linear_232_59" x1="279.223" y1="311.305" x2="24.3082" y2="616.798" gradientUnits="userSpaceOnUse">
<stop stop-color="#FF9085"/>
<stop offset="1" stop-color="#FB6FBB"/>
</linearGradient>
<radialGradient id="paint14_angular_232_59" cx="0" cy="0" r="1" gradientUnits="userSpaceOnUse" gradientTransform="translate(174.785 174.673) rotate(141.922) scale(29.0667 33.2148)">
<stop offset="0.00359712" stop-color="#C02E31"/>
<stop offset="1"/>
</radialGradient>
<radialGradient id="paint15_angular_232_59" cx="0" cy="0" r="1" gradientUnits="userSpaceOnUse" gradientTransform="translate(203.01 156.454) rotate(119.089) scale(46.3575 46.3575)">
<stop offset="0.00359712" stop-color="#C02E31"/>
<stop offset="1"/>
</radialGradient>
<radialGradient id="paint16_angular_232_59" cx="0" cy="0" r="1" gradientUnits="userSpaceOnUse" gradientTransform="translate(230.8 142.909) rotate(111.092) scale(61.6744 48.7415)">
<stop offset="0.00359712" stop-color="#C02E31"/>
<stop offset="1"/>
</radialGradient>
<radialGradient id="paint17_angular_232_59" cx="0" cy="0" r="1" gradientUnits="userSpaceOnUse" gradientTransform="translate(258.155 156.875) rotate(117.557) scale(47.2332 45.5988)">
<stop offset="0.00359712" stop-color="#C02E31"/>
<stop offset="1"/>
</radialGradient>
<radialGradient id="paint18_angular_232_59" cx="0" cy="0" r="1" gradientUnits="userSpaceOnUse" gradientTransform="translate(285.076 139.067) rotate(108.592) scale(67.462 47.9845)">
<stop offset="0.00359712" stop-color="#C02E31"/>
<stop offset="1"/>
</radialGradient>
<radialGradient id="paint19_angular_232_59" cx="0" cy="0" r="1" gradientUnits="userSpaceOnUse" gradientTransform="translate(311.586 134.349) rotate(106.725) scale(73.5454 47.7114)">
<stop offset="0.00359712" stop-color="#C02E31"/>
<stop offset="1"/>
</radialGradient>
<linearGradient id="paint20_linear_232_59" x1="499.665" y1="370.173" x2="439.232" y2="530.142" gradientUnits="userSpaceOnUse">
<stop stop-color="#FFC444"/>
<stop offset="0.9964" stop-color="#F36F56"/>
</linearGradient>
<linearGradient id="paint21_linear_232_59" x1="492.527" y1="367.463" x2="431.55" y2="528.873" gradientUnits="userSpaceOnUse">
<stop stop-color="#FFC444"/>
<stop offset="0.9964" stop-color="#F36F56"/>
</linearGradient>
<linearGradient id="paint22_linear_232_59" x1="471.258" y1="360.002" x2="410.244" y2="521.508" gradientUnits="userSpaceOnUse">
<stop stop-color="#FFC444"/>
<stop offset="0.9964" stop-color="#F36F56"/>
</linearGradient>
<linearGradient id="paint23_linear_232_59" x1="459.544" y1="355.786" x2="398.18" y2="518.22" gradientUnits="userSpaceOnUse">
<stop stop-color="#FFC444"/>
<stop offset="0.9964" stop-color="#F36F56"/>
</linearGradient>
<linearGradient id="paint24_linear_232_59" x1="454.718" y1="353.114" x2="392.271" y2="518.413" gradientUnits="userSpaceOnUse">
<stop stop-color="#FFC444"/>
<stop offset="0.9964" stop-color="#F36F56"/>
</linearGradient>
<linearGradient id="paint25_linear_232_59" x1="436.096" y1="347.158" x2="373.917" y2="511.749" gradientUnits="userSpaceOnUse">
<stop stop-color="#FFC444"/>
<stop offset="0.9964" stop-color="#F36F56"/>
</linearGradient>
<linearGradient id="paint26_linear_232_59" x1="418.5" y1="341.007" x2="356.16" y2="506.027" gradientUnits="userSpaceOnUse">
<stop stop-color="#FFC444"/>
<stop offset="0.9964" stop-color="#F36F56"/>
</linearGradient>
<linearGradient id="paint27_linear_232_59" x1="407.238" y1="336.754" x2="344.43" y2="503.011" gradientUnits="userSpaceOnUse">
<stop stop-color="#FFC444"/>
<stop offset="0.9964" stop-color="#F36F56"/>
</linearGradient>
<linearGradient id="paint28_linear_232_59" x1="388.239" y1="330.172" x2="325.3" y2="496.775" gradientUnits="userSpaceOnUse">
<stop stop-color="#FFC444"/>
<stop offset="0.9964" stop-color="#F36F56"/>
</linearGradient>
<linearGradient id="paint29_linear_232_59" x1="372.201" y1="324.45" x2="308.975" y2="491.814" gradientUnits="userSpaceOnUse">
<stop stop-color="#FFC444"/>
<stop offset="0.9964" stop-color="#F36F56"/>
</linearGradient>
<linearGradient id="paint30_linear_232_59" x1="416.448" y1="148.756" x2="427.328" y2="391.743" gradientUnits="userSpaceOnUse">
<stop stop-color="#AA80F9"/>
<stop offset="0.9964" stop-color="#6165D7"/>
</linearGradient>
<linearGradient id="paint31_linear_232_59" x1="389.625" y1="453.574" x2="316.153" y2="682.152" gradientUnits="userSpaceOnUse">
<stop stop-color="#FF9085"/>
<stop offset="1" stop-color="#FB6FBB"/>
</linearGradient>
<linearGradient id="paint32_linear_232_59" x1="408.721" y1="459.335" x2="336.27" y2="684.738" gradientUnits="userSpaceOnUse">
<stop stop-color="#FF9085"/>
<stop offset="1" stop-color="#FB6FBB"/>
</linearGradient>
<linearGradient id="paint33_linear_232_59" x1="439.76" y1="467.629" x2="367.985" y2="690.931" gradientUnits="userSpaceOnUse">
<stop stop-color="#FF9085"/>
<stop offset="1" stop-color="#FB6FBB"/>
</linearGradient>
<linearGradient id="paint34_linear_232_59" x1="459.119" y1="473.048" x2="388.253" y2="693.519" gradientUnits="userSpaceOnUse">
<stop stop-color="#FF9085"/>
<stop offset="1" stop-color="#FB6FBB"/>
</linearGradient>
<linearGradient id="paint35_linear_232_59" x1="489.912" y1="481.256" x2="419.647" y2="699.857" gradientUnits="userSpaceOnUse">
<stop stop-color="#FF9085"/>
<stop offset="1" stop-color="#FB6FBB"/>
</linearGradient>
<linearGradient id="paint36_linear_232_59" x1="507.238" y1="331.816" x2="436.031" y2="287.147" gradientUnits="userSpaceOnUse">
<stop stop-color="#444B8C"/>
<stop offset="0.9964" stop-color="#26264F"/>
</linearGradient>
<linearGradient id="paint37_linear_232_59" x1="366.447" y1="243.498" x2="295.241" y2="198.829" gradientUnits="userSpaceOnUse">
<stop stop-color="#444B8C"/>
<stop offset="0.9964" stop-color="#26264F"/>
</linearGradient>
<linearGradient id="paint38_linear_232_59" x1="510.38" y1="326.807" x2="439.174" y2="282.138" gradientUnits="userSpaceOnUse">
<stop stop-color="#FBC196"/>
<stop offset="1" stop-color="#E86B10"/>
</linearGradient>
<linearGradient id="paint39_linear_232_59" x1="308.487" y1="234.121" x2="455.847" y2="158.937" gradientUnits="userSpaceOnUse">
<stop stop-color="#E86B10"/>
<stop offset="1" stop-color="#754845"/>
</linearGradient>
<linearGradient id="paint40_linear_232_59" x1="475.47" y1="239.25" x2="423.774" y2="-16.3323" gradientUnits="userSpaceOnUse">
<stop stop-color="white"/>
<stop offset="0.9964" stop-color="#B7BFEE"/>
</linearGradient>
<linearGradient id="paint41_linear_232_59" x1="589.514" y1="104.691" x2="463.918" y2="25.9033" gradientUnits="userSpaceOnUse">
<stop stop-color="#E86B10"/>
<stop offset="0.9964" stop-color="#FFAC70"/>
</linearGradient>
<linearGradient id="paint42_linear_232_59" x1="557.859" y1="117.215" x2="538.491" y2="21.4592" gradientUnits="userSpaceOnUse">
<stop stop-color="#AA80F9"/>
<stop offset="0.9964" stop-color="#6165D7"/>
</linearGradient>
<linearGradient id="paint43_linear_232_59" x1="523.883" y1="182.291" x2="422.618" y2="118.765" gradientUnits="userSpaceOnUse">
<stop offset="0.00359712" stop-color="#EBEFF2"/>
<stop offset="1" stop-color="white"/>
</linearGradient>
<linearGradient id="paint44_linear_232_59" x1="522.842" y1="183.95" x2="421.577" y2="120.425" gradientUnits="userSpaceOnUse">
<stop offset="0.00359712" stop-color="#EBEFF2"/>
<stop offset="1" stop-color="white"/>
</linearGradient>
<linearGradient id="paint45_linear_232_59" x1="477.816" y1="108.291" x2="470.595" y2="175.091" gradientUnits="userSpaceOnUse">
<stop offset="0.00359712" stop-color="#EBEFF2"/>
<stop offset="1" stop-color="white"/>
</linearGradient>
<linearGradient id="paint46_linear_232_59" x1="476.98" y1="242.559" x2="470.604" y2="85.2329" gradientUnits="userSpaceOnUse">
<stop/>
<stop offset="0.9964" stop-color="#26264F"/>
</linearGradient>
<linearGradient id="paint47_linear_232_59" x1="425.787" y1="303.286" x2="356.377" y2="259.744" gradientUnits="userSpaceOnUse">
<stop stop-color="#E86B10"/>
<stop offset="1" stop-color="#E61211"/>
</linearGradient>
<linearGradient id="paint48_linear_232_59" x1="387.346" y1="277.222" x2="372.199" y2="339.271" gradientUnits="userSpaceOnUse">
<stop stop-color="#F79750"/>
<stop offset="0.9964" stop-color="#E86B10"/>
</linearGradient>
<linearGradient id="paint49_linear_232_59" x1="386.365" y1="281.239" x2="374.854" y2="328.396" gradientUnits="userSpaceOnUse">
<stop/>
<stop offset="0.9964" stop-color="#26264F"/>
</linearGradient>
<linearGradient id="paint50_linear_232_59" x1="483.683" y1="242.288" x2="477.308" y2="84.9611" gradientUnits="userSpaceOnUse">
<stop stop-color="#111111"/>
<stop offset="0.9964" stop-color="#26264F"/>
</linearGradient>
<linearGradient id="paint51_linear_232_59" x1="255" y1="636" x2="380.5" y2="305.5" gradientUnits="userSpaceOnUse">
<stop stop-color="white" stop-opacity="0"/>
<stop offset="1" stop-color="#AD9AC8"/>
</linearGradient>
<linearGradient id="paint52_linear_232_59" x1="118.175" y1="691.374" x2="120.191" y2="727.269" gradientUnits="userSpaceOnUse">
<stop offset="0.003597" stop-color="#26264F"/>
<stop offset="1" stop-color="#444B8C"/>
</linearGradient>
<linearGradient id="paint53_linear_232_59" x1="187.045" y1="687.274" x2="189.062" y2="723.17" gradientUnits="userSpaceOnUse">
<stop offset="0.003597" stop-color="#26264F"/>
<stop offset="1" stop-color="#444B8C"/>
</linearGradient>
<linearGradient id="paint54_linear_232_59" x1="60.125" y1="450.895" x2="155.228" y2="450.895" gradientUnits="userSpaceOnUse">
<stop stop-color="#E86B10"/>
<stop offset="1" stop-color="#C42C2E"/>
</linearGradient>
<linearGradient id="paint55_linear_232_59" x1="243.978" y1="335.424" x2="268.31" y2="335.424" gradientUnits="userSpaceOnUse">
<stop offset="0.003597" stop-color="#26264F"/>
<stop offset="1" stop-color="#444B8C"/>
</linearGradient>
<linearGradient id="paint56_linear_232_59" x1="197.067" y1="354.499" x2="263.596" y2="354.499" gradientUnits="userSpaceOnUse">
<stop offset="0.003597" stop-color="#26264F"/>
<stop offset="1" stop-color="#444B8C"/>
</linearGradient>
<linearGradient id="paint57_linear_232_59" x1="196.283" y1="380.072" x2="201.036" y2="380.072" gradientUnits="userSpaceOnUse">
<stop offset="0.003597" stop-color="#26264F"/>
<stop offset="1" stop-color="#444B8C"/>
</linearGradient>
<linearGradient id="paint58_linear_232_59" x1="234.1" y1="359.515" x2="246.644" y2="359.515" gradientUnits="userSpaceOnUse">
<stop stop-color="#FFC444"/>
<stop offset="0.9964" stop-color="#F36F56"/>
</linearGradient>
<linearGradient id="paint59_linear_232_59" x1="200.917" y1="377.824" x2="151.829" y2="442.654" gradientUnits="userSpaceOnUse">
<stop stop-color="#FFC444"/>
<stop offset="0.9964" stop-color="#F36F56"/>
</linearGradient>
<linearGradient id="paint60_linear_232_59" x1="198.171" y1="377.198" x2="155.694" y2="433.296" gradientUnits="userSpaceOnUse">
<stop stop-color="#FFC444"/>
<stop offset="0.9964" stop-color="#F36F56"/>
</linearGradient>
<linearGradient id="paint61_linear_232_59" x1="263.902" y1="366.188" x2="155.005" y2="492.024" gradientUnits="userSpaceOnUse">
<stop stop-color="#E86B10"/>
<stop offset="1" stop-color="#C22D30"/>
</linearGradient>
<linearGradient id="paint62_linear_232_59" x1="278.193" y1="378.556" x2="169.297" y2="504.392" gradientUnits="userSpaceOnUse">
<stop stop-color="#E86B10"/>
<stop offset="1" stop-color="#C12E31"/>
</linearGradient>
<clipPath id="clip0_232_59">
<rect width="684" height="716" fill="white"/>
</clipPath>
</defs>
</svg>
