<svg width="1920" height="986" viewBox="0 0 1920 986" fill="none" xmlns="http://www.w3.org/2000/svg">
<path d="M636.5 974.5C348.9 1009.7 93 954.667 0 892V-90H1920V425.5C1611.5 654.167 1206 904.798 636.5 974.5Z" fill="#E86B10"/>
<path d="M636.5 974.5C348.9 1009.7 93 954.667 0 892V-90H1920V335.5C1611.5 564.167 1206 904.798 636.5 974.5Z" fill="#95282B"/>
<path d="M636.5 974.5C348.9 1009.7 93 894.667 0 832V-90H1920V245.5C1611.5 474.167 1206 904.798 636.5 974.5Z" fill="url(#paint0_radial_232_49)"/>
<circle cx="707.99" cy="449.201" r="327.99" fill="url(#paint1_radial_232_49)"/>
<circle opacity="0.05" cx="443.5" cy="661.5" r="230.5" fill="url(#paint2_linear_232_49)"/>
<circle opacity="0.05" cx="1340.88" cy="241.878" r="136.878" fill="url(#paint3_linear_232_49)"/>
<circle opacity="0.5" cx="920.091" cy="508.362" r="184.656" fill="url(#paint4_linear_232_49)"/>
<circle cx="1046.64" cy="374.066" r="58.1085" fill="url(#paint5_linear_232_49)"/>
<defs>
<radialGradient id="paint0_radial_232_49" cx="0" cy="0" r="1" gradientUnits="userSpaceOnUse" gradientTransform="translate(813.5 379) rotate(76.3239) scale(619.625 1110.75)">
<stop stop-color="#FB0300"/>
<stop offset="1" stop-color="#B93438"/>
</radialGradient>
<radialGradient id="paint1_radial_232_49" cx="0" cy="0" r="1" gradientUnits="userSpaceOnUse" gradientTransform="translate(707.99 456.531) rotate(47.6224) scale(339.82)">
<stop stop-color="#E86B10"/>
<stop offset="1" stop-color="#E41413" stop-opacity="0.27"/>
</radialGradient>
<linearGradient id="paint2_linear_232_49" x1="282.536" y1="490.235" x2="604.464" y2="843.067" gradientUnits="userSpaceOnUse">
<stop stop-color="white"/>
<stop offset="1" stop-color="white" stop-opacity="0"/>
</linearGradient>
<linearGradient id="paint3_linear_232_49" x1="1245.29" y1="140.175" x2="1436.46" y2="349.698" gradientUnits="userSpaceOnUse">
<stop stop-color="white"/>
<stop offset="1" stop-color="white" stop-opacity="0"/>
</linearGradient>
<linearGradient id="paint4_linear_232_49" x1="791.141" y1="371.159" x2="1049.04" y2="653.817" gradientUnits="userSpaceOnUse">
<stop stop-color="#FFA05A"/>
<stop offset="1" stop-color="#E86B10"/>
</linearGradient>
<linearGradient id="paint5_linear_232_49" x1="988.53" y1="398.601" x2="1104.75" y2="336.619" gradientUnits="userSpaceOnUse">
<stop stop-color="#E86B10"/>
<stop offset="1" stop-color="#EF924F" stop-opacity="0"/>
</linearGradient>
</defs>
</svg>
