<svg width="1920" height="982" viewBox="0 0 1920 982" fill="none" xmlns="http://www.w3.org/2000/svg">
<path d="M636.5 971.462C348.9 1003.59 93 953.363 0 896.173V0H1920V470.445C1611.5 679.126 1206 907.852 636.5 971.462Z" fill="#EADFFA"/>
<path d="M636.5 971.462C348.9 1003.59 93 953.363 0 896.173V0H1920V388.311C1611.5 596.992 1206 907.852 636.5 971.462Z" fill="#9ADAFF"/>
<path d="M636.5 971.462C348.9 1003.59 93 898.607 0 841.417V0H1920V306.177C1611.5 514.858 1206 907.852 636.5 971.462Z" fill="url(#paint0_radial_206_6)"/>
<circle cx="707.99" cy="445.201" r="327.99" fill="url(#paint1_radial_206_6)"/>
<circle opacity="0.05" cx="443.5" cy="657.5" r="230.5" fill="url(#paint2_linear_206_6)"/>
<circle opacity="0.05" cx="1340.88" cy="237.878" r="136.878" fill="url(#paint3_linear_206_6)"/>
<circle opacity="0.5" cx="920.091" cy="504.362" r="184.656" fill="url(#paint4_linear_206_6)"/>
<circle cx="1046.64" cy="370.066" r="58.1085" fill="url(#paint5_linear_206_6)"/>
<defs>
<radialGradient id="paint0_radial_206_6" cx="0" cy="0" r="1" gradientUnits="userSpaceOnUse" gradientTransform="translate(813.5 428.009) rotate(75.0702) scale(568.633 1104.57)">
<stop stop-color="#2F5AD5"/>
<stop offset="1" stop-color="#2F3C98"/>
</radialGradient>
<radialGradient id="paint1_radial_206_6" cx="0" cy="0" r="1" gradientUnits="userSpaceOnUse" gradientTransform="translate(707.99 452.531) rotate(47.6224) scale(339.82)">
<stop stop-color="#A35AE2"/>
<stop offset="1" stop-color="#304AB5" stop-opacity="0"/>
</radialGradient>
<linearGradient id="paint2_linear_206_6" x1="282.536" y1="486.235" x2="604.464" y2="839.067" gradientUnits="userSpaceOnUse">
<stop stop-color="white"/>
<stop offset="1" stop-color="white" stop-opacity="0"/>
</linearGradient>
<linearGradient id="paint3_linear_206_6" x1="1245.29" y1="136.175" x2="1436.46" y2="345.698" gradientUnits="userSpaceOnUse">
<stop stop-color="white"/>
<stop offset="1" stop-color="white" stop-opacity="0"/>
</linearGradient>
<linearGradient id="paint4_linear_206_6" x1="791.141" y1="367.159" x2="1049.04" y2="649.817" gradientUnits="userSpaceOnUse">
<stop stop-color="#B862F3"/>
<stop offset="1" stop-color="#424AB6"/>
</linearGradient>
<linearGradient id="paint5_linear_206_6" x1="988.53" y1="394.601" x2="1104.75" y2="332.619" gradientUnits="userSpaceOnUse">
<stop stop-color="#B862F3"/>
<stop offset="1" stop-color="#424AB6" stop-opacity="0"/>
</linearGradient>
</defs>
</svg>
