<svg width="162" height="50" viewBox="0 0 162 50" fill="none" xmlns="http://www.w3.org/2000/svg">
<path fill-rule="evenodd" clip-rule="evenodd" d="M149.728 31.2671C150.342 31.2671 150.873 31.4243 151.324 31.7388C151.774 32.0533 152 32.3549 152 32.643V37.5175C152 37.9106 151.764 38.3172 151.294 38.7361C150.823 39.1556 150.28 39.3651 149.666 39.3651H142.112C141.497 39.3651 140.954 39.1556 140.484 38.7361C140.013 38.3172 139.778 37.9106 139.778 37.5175V11.8476C139.778 11.6645 139.839 11.4612 139.962 11.2383C140.085 11.0159 140.259 10.8126 140.484 10.629C140.709 10.4459 140.954 10.2948 141.221 10.1769C141.487 10.059 141.784 10 142.112 10H149.666C149.952 10 150.239 10.059 150.526 10.1769C150.812 10.2948 151.068 10.4459 151.294 10.629C151.518 10.8126 151.693 11.0159 151.816 11.2383C151.939 11.4612 152 11.6645 152 11.8476V27.5719H144.384V35.6699H147.394V31.2671H149.728ZM147.394 24.5056V13.6952H144.384V24.5056H147.394ZM125.7 38.7558C125.228 38.3497 124.993 37.9499 124.993 37.5568V10H129.6V35.6699H137.215V39.3651H127.327C126.713 39.3651 126.17 39.1624 125.7 38.7558ZM109.915 38.7361C109.444 38.3172 109.209 37.9106 109.209 37.5175V29.4195C109.209 29.0264 109.444 28.6203 109.915 28.2008C110.385 27.7819 110.928 27.5719 111.543 27.5719H116.825V13.6952H113.815V24.5056H111.543C110.764 24.5056 110.181 24.3681 109.792 24.0929C109.403 23.8177 109.209 23.4577 109.209 23.0118V11.8476C109.209 11.6645 109.27 11.4612 109.393 11.2383C109.516 11.0159 109.69 10.8126 109.915 10.629C110.14 10.4459 110.385 10.2948 110.652 10.1769C110.918 10.059 111.215 10 111.543 10H119.097C119.383 10 119.67 10.059 119.957 10.1769C120.243 10.2948 120.499 10.4459 120.725 10.629C120.949 10.8126 121.124 11.0159 121.247 11.2383C121.37 11.4612 121.431 11.6645 121.431 11.8476V39.3651H111.543C110.928 39.3651 110.385 39.1556 109.915 38.7361ZM113.815 35.6699H116.825V31.2671H113.815V35.6699ZM101.041 23.4049H98.0315V39.3651H93.4252V10H98.0315V19.7097H103.375C103.661 19.7097 103.948 19.7754 104.235 19.9063C104.521 20.0377 104.766 20.1949 104.972 20.378C105.176 20.5617 105.34 20.7649 105.463 20.9873C105.586 21.2103 105.647 21.4136 105.647 21.5967V39.3651H101.041V23.4049ZM79.7289 39.3651L77.6407 21.2429L75.4761 39.3651H69.1036L65.2956 10H70.8847L73.0343 31.385L75.184 10H79.9746L82.1242 31.385L84.2739 10H89.8629L86.055 39.3651H79.7289ZM42.2744 38.7361C41.8032 38.3172 41.5681 37.9106 41.5681 37.5175V29.4195C41.5681 29.0264 41.8032 28.6203 42.2744 28.2008C42.7447 27.7819 43.2878 27.5719 43.902 27.5719H49.184V13.6952H46.1745V24.5056H43.902C43.1237 24.5056 42.5403 24.3681 42.1516 24.0929C41.762 23.8177 41.5681 23.4577 41.5681 23.0118V11.8476C41.5681 11.6645 41.6295 11.4612 41.7523 11.2383C41.8752 11.0159 42.0489 10.8126 42.2744 10.629C42.499 10.4459 42.7447 10.2948 43.0114 10.1769C43.2773 10.059 43.5738 10 43.902 10H51.4564C51.7425 10 52.0294 10.059 52.3163 10.1769C52.6023 10.2948 52.8585 10.4459 53.084 10.629C53.3086 10.8126 53.4832 11.0159 53.6061 11.2383C53.7289 11.4612 53.7903 11.6645 53.7903 11.8476V39.3651H43.902C43.2878 39.3651 42.7447 39.1556 42.2744 38.7361ZM46.1745 35.6699H49.184V31.2671H46.1745V35.6699ZM37.3004 30.6381C37.0749 30.8217 36.8187 30.9722 36.5327 31.0902C36.2458 31.2081 35.9589 31.2671 35.6728 31.2671H30.3909V39.3651H25.7845V10H35.6728C35.9589 10 36.2458 10.059 36.5327 10.1769C36.8187 10.2948 37.0749 10.4459 37.3004 10.629C37.525 10.8126 37.6996 11.0159 37.8225 11.2383C37.9453 11.4612 38.0067 11.6645 38.0067 11.8476V29.4195C38.0067 29.6031 37.9453 29.8064 37.8225 30.0288C37.6996 30.2517 37.525 30.455 37.3004 30.6381ZM33.4003 13.6952H30.3909V27.5719H33.4003V13.6952ZM19.8883 39.3651H12.3339C11.7197 39.3651 11.1766 39.1556 10.7063 38.7361C10.2351 38.3172 10 37.9106 10 37.5175V11.8476C10 11.6645 10.0614 11.4612 10.1843 11.2383C10.3071 11.0159 10.4808 10.8126 10.7063 10.629C10.9309 10.4459 11.1766 10.2948 11.4433 10.1769C11.7092 10.059 12.0057 10 12.3339 10H19.8883C20.1744 10 20.4613 10.059 20.7482 10.1769C21.0342 10.2948 21.2904 10.4459 21.5159 10.629C21.7405 10.8126 21.9151 11.0159 22.038 11.2383C22.1608 11.4612 22.2222 11.6645 22.2222 11.8476V25.8029C22.2222 26.2224 21.9862 26.6222 21.5159 27.0019C21.0448 27.3821 20.5227 27.5719 19.9498 27.5719H17.6159V13.6952H14.6064V35.6699H17.6159V31.2671H19.9498C20.5227 31.2671 21.0448 31.4636 21.5159 31.8567C21.9862 32.2498 22.2222 32.643 22.2222 33.0361V37.5175C22.2222 37.9106 21.9862 38.3172 21.5159 38.7361C21.0448 39.1556 20.5025 39.3651 19.8883 39.3651Z" fill="white"/>
<rect x="1" y="1" width="160" height="47.3651" stroke="white" stroke-width="2"/>
</svg>
